<svg xmlns="http://www.w3.org/2000/svg" viewBox="0 0 32 32">
  <defs>
    <linearGradient id="g" x1="0%" y1="0%" x2="100%" y2="100%">
      <stop offset="0%" style="stop-color:#6366f1"/>
      <stop offset="100%" style="stop-color:#8b5cf6"/>
    </linearGradient>
  </defs>
  <rect width="32" height="32" rx="6" fill="url(#g)"/>
  <path d="M8 7h12a2 2 0 0 1 2 2v14a2 2 0 0 1-2 2H8a1 1 0 0 1-1-1V8a1 1 0 0 1 1-1z" fill="#fff" opacity="0.95"/>
  <path d="M10 12h8M10 15.5h6M10 19h4" stroke="#6366f1" stroke-width="1.5" stroke-linecap="round"/>
  <path d="M24 11c0 0 2-1 2 1.5s-2 3-2 5c0 1.5 1.5 2 1.5 2" stroke="#fbbf24" stroke-width="1.5" stroke-linecap="round" fill="none"/>
  <circle cx="25" cy="9.5" r="1" fill="#fbbf24"/>
</svg>
